<svg width="40" height="40" viewBox="0 0 40 40" fill="none" xmlns="http://www.w3.org/2000/svg">
  <defs>
    <linearGradient id="iconGradient" x1="0%" y1="0%" x2="100%" y2="100%">
      <stop offset="0%" style="stop-color:#6633FF;stop-opacity:1" />
      <stop offset="50%" style="stop-color:#00FF99;stop-opacity:1" />
      <stop offset="100%" style="stop-color:#FF3366;stop-opacity:1" />
    </linearGradient>
  </defs>
  
  <!-- Hexagon container -->
  <path d="M20 2 L32 9 L32 23 L20 30 L8 23 L8 9 Z" 
        stroke="url(#iconGradient)" 
        stroke-width="2" 
        fill="rgba(102, 51, 255, 0.1)"/>
  
  <!-- Neural network nodes -->
  <circle cx="14" cy="12" r="2" fill="#6633FF"/>
  <circle cx="26" cy="12" r="2" fill="#00FF99"/>
  <circle cx="20" cy="20" r="2" fill="#FF3366"/>
  <circle cx="20" cy="6" r="1.5" fill="#6633FF" opacity="0.7"/>
  
  <!-- Connections -->
  <path d="M14 12 L26 12 M14 12 L20 20 M26 12 L20 20 M20 6 L14 12 M20 6 L26 12" 
        stroke="url(#iconGradient)" 
        stroke-width="1" 
        opacity="0.6"/>
  
  <!-- Hash symbol -->
  <g transform="translate(20, 14)">
    <path d="M-3 -2 L3 -2 M-3 2 L3 2 M-1 -4 L-1 4 M1 -4 L1 4" 
          stroke="#00FF99" 
          stroke-width="1.5" 
          stroke-linecap="round"/>
  </g>
</svg>